<svg width="73" height="20" viewBox="0 0 73 20" fill="none" xmlns="http://www.w3.org/2000/svg">
<path d="M6.6155 5.37568V4.99256C6.6155 3.2794 6.03317 2.51117 4.77797 2.51117C3.30672 2.51117 2.84785 3.30521 2.84785 5.88586V9.42333C2.84785 10.8129 2.94045 11.462 3.21618 11.9643C3.49191 12.4665 4.07218 12.7583 4.77797 12.7583C6.03317 12.7583 6.6155 11.9643 6.6155 10.1777V9.77866H9.46541V10.3385C9.46541 12.0814 9.15881 13.1176 8.39335 13.9117C7.57027 14.797 6.33565 15.2715 4.78003 15.2715C3.06391 15.2715 1.71612 14.7395 0.952714 13.735C0.244866 12.8218 0 11.7856 0 9.77866V5.52457C0 3.51563 0.244866 2.45161 0.950656 1.53449C1.71406 0.530025 3.03099 0 4.77797 0C6.33977 0 7.5641 0.44268 8.39129 1.32804C9.15675 2.12208 9.46335 3.13052 9.46335 4.84367V5.37568H6.6155Z" fill="#000F37"/>
<path d="M17.2108 14.9777C17.0319 14.4229 16.9492 13.8434 16.9659 13.2626C15.5873 14.7117 14.7601 15.1842 13.5358 15.1842C11.6056 15.1842 10.4492 13.7073 10.4492 11.2854C10.4492 9.45316 11.153 8.30775 12.9185 7.23778C13.6531 6.79311 14.3897 6.44373 16.9618 5.37574V4.6075C16.9618 3.1008 16.5318 2.51122 15.4597 2.51122C14.3877 2.51122 13.902 3.13058 13.7868 4.6075H10.7805C11.0254 1.65366 12.8012 0.0874023 15.863 0.0874023C17.2705 0.0874023 18.2829 0.442737 18.9866 1.21098C19.6286 1.97921 19.8097 2.65812 19.8097 4.4606V10.9896C19.8097 13.205 19.8694 13.8839 20.1451 14.9777H17.2108ZM16.9659 7.41445C14.4535 8.7147 13.4432 9.74894 13.4432 11.1068C13.4432 12.0814 14.0605 12.7623 14.8836 12.7623C15.7066 12.7623 16.4145 12.2899 16.9659 11.4323V7.41445Z" fill="#000F37"/>
<path d="M27.8958 4.63737C27.3155 3.1009 26.6406 2.51132 25.5397 2.51132C24.6508 2.51132 24.0376 3.04333 24.0376 3.80958C24.0376 4.60363 24.4676 5.02248 26.6097 6.14407C28.3258 7.05921 29.0913 7.53365 29.6962 8.153C30.4082 8.91342 30.7918 9.90772 30.7683 10.9322C30.7683 13.5307 28.8999 15.2736 26.0829 15.2736C23.4799 15.2736 21.8585 13.9753 20.877 11.1386L23.552 10.2533C24.1693 12.0538 24.8998 12.7644 26.0932 12.7644C27.0439 12.7644 27.7167 12.1431 27.7167 11.2875C27.7167 10.4319 27.227 9.92769 25.5726 9.07013C23.4902 7.94854 22.91 7.56343 22.235 6.8865C21.5126 6.13036 21.1186 5.13557 21.1342 4.10735C21.1342 1.72521 23.0005 0.00213623 25.5726 0.00213623C27.9925 0.00213623 29.5543 1.12372 30.5111 3.54556L27.8958 4.63737Z" fill="#000F37"/>
<path d="M34.5425 0.293734V1.06991C35.8039 -0.081452 36.808 0.0872825 37.911 0.0872825C38.4282 0.0750037 38.9374 0.211805 39.3736 0.480197C39.8098 0.748588 40.1531 1.13638 40.3596 1.59398C40.8206 2.59845 40.9769 3.63269 40.9769 5.87785V9.05006C40.9769 11.2952 40.8247 12.3295 40.3596 13.3339C40.1272 13.8062 39.7684 14.21 39.3203 14.5038C38.8721 14.7977 38.3508 14.9708 37.8101 15.0054C36.6496 15.0848 35.559 15.0848 34.5425 14.1955V18.656L31.6885 19.998V0.293734H34.5425ZM34.5425 12.0218C35.308 12.5538 35.8903 12.7622 36.5323 12.7622C36.8054 12.7713 37.0754 12.7035 37.3092 12.5671C37.5431 12.4307 37.7307 12.2316 37.8492 11.994C38.0941 11.4917 38.125 11.1066 38.125 9.57016V6.03666C38.125 4.50019 38.0941 3.77959 37.8492 3.27736C37.7304 3.04016 37.5427 2.84142 37.3088 2.70536C37.075 2.56931 36.8052 2.50181 36.5323 2.5111C35.8903 2.5111 35.2771 2.74733 34.5425 3.24957V12.0218Z" fill="#000F37"/>
<path d="M45.0764 8.42878V9.39355C45.0764 11.9742 45.5352 12.7682 47.0065 12.7682C47.8934 12.7682 48.4757 12.3533 48.7206 11.5256C48.8131 11.202 48.844 10.93 48.844 9.90174H51.6919C51.661 11.9107 51.5684 12.5598 51.1095 13.3002C50.3749 14.5985 48.9346 15.2854 47.0065 15.2854C45.2595 15.2854 43.9446 14.7533 43.1792 13.7489C42.5042 12.8318 42.2285 11.74 42.2285 9.76079V5.39355C42.2285 3.05906 42.5042 2.08437 43.4528 1.19901C44.28 0.412903 45.4756 0 46.916 0C48.4777 0 49.7021 0.472457 50.4984 1.35782C51.3565 2.30273 51.6631 3.36675 51.6631 5.67146V8.42878H45.0764ZM48.8131 4.88139C48.8131 3.13846 48.2617 2.42978 46.9448 2.42978C45.6278 2.42978 45.0764 3.13846 45.0764 4.88139V6.01489H48.8131V4.88139Z" fill="#000F37"/>
<path d="M59.5295 5.37568V4.99256C59.5295 3.2794 58.9492 2.51117 57.694 2.51117C56.2227 2.51117 55.7639 3.30521 55.7639 5.88586V9.42333C55.7639 10.8129 55.8565 11.462 56.1322 11.9643C56.4079 12.4665 56.9882 12.7583 57.694 12.7583C58.9492 12.7583 59.5295 11.9643 59.5295 10.1777V9.77866H62.3773V10.3385C62.3773 12.0814 62.0728 13.1176 61.3073 13.9117C60.4842 14.797 59.2496 15.2715 57.694 15.2715C55.9779 15.2715 54.6301 14.7395 53.8646 13.735C53.1609 12.8179 52.916 11.7836 52.916 9.77668V5.52457C52.916 3.51563 53.1609 2.45161 53.8646 1.53449C54.6301 0.530025 55.947 0 57.694 0C59.2558 0 60.4801 0.44268 61.3073 1.32804C62.0728 2.12208 62.3773 3.13052 62.3773 4.84367V5.37568H59.5295Z" fill="#000F37"/>
<path d="M72.7269 9.89578C72.7269 12.2005 72.4512 13.205 71.5335 14.0903C70.7104 14.8586 69.5128 15.2814 68.0724 15.2814C66.632 15.2814 65.4098 14.8685 64.5743 14.0903C63.6854 13.205 63.3809 12.2005 63.3809 9.89578V5.37568C63.3809 3.07097 63.6854 2.0665 64.5743 1.18114C65.3974 0.412903 66.595 0 68.0724 0C69.5498 0 70.7063 0.412903 71.5335 1.19107C72.4512 2.07643 72.7269 3.08089 72.7269 5.38561V9.89578ZM66.2369 10.0725C66.2369 11.9345 66.7864 12.7623 68.0416 12.7623C69.2967 12.7623 69.8791 11.9345 69.8791 10.0725V5.19901C69.8791 3.30918 69.3276 2.51117 68.0416 2.51117C66.7555 2.51117 66.2369 3.33697 66.2369 5.19901V10.0725Z" fill="#000F37"/>
</svg>
